<?xml version="1.0" encoding="UTF-8" standalone="no"?><svg xmlns="http://www.w3.org/2000/svg" xmlns:xlink="http://www.w3.org/1999/xlink" contentScriptType="application/ecmascript" contentStyleType="text/css" height="805px" preserveAspectRatio="none" style="width:1502px;height:805px;" version="1.1" viewBox="0 0 1502 805" width="1502px" zoomAndPan="magnify"><defs><filter height="300%" id="f91wahgq0bbg5" width="300%" x="-1" y="-1"><feGaussianBlur result="blurOut" stdDeviation="2.0"/><feColorMatrix in="blurOut" result="blurOut2" type="matrix" values="0 0 0 0 0 0 0 0 0 0 0 0 0 0 0 0 0 0 .4 0"/><feOffset dx="4.0" dy="4.0" in="blurOut2" result="blurOut3"/><feBlend in="SourceGraphic" in2="blurOut3" mode="normal"/></filter></defs><g><!--MD5=[e811c067c84cb43c7f3c28a116dfb4bc]
cluster ClientPage--><polygon fill="#FFFFFF" filter="url(#f91wahgq0bbg5)" points="246,38,336,38,343,60.2969,866,60.2969,866,109,246,109,246,38" style="stroke: #000000; stroke-width: 1.5;"/><line style="stroke: #000000; stroke-width: 1.5;" x1="246" x2="343" y1="60.2969" y2="60.2969"/><text fill="#000000" font-family="sans-serif" font-size="14" font-weight="bold" lengthAdjust="spacingAndGlyphs" textLength="84" x="250" y="52.9951">ClientPage</text><!--MD5=[3df17a29df4c181920bba85cefb12374]
cluster BarberPage--><polygon fill="#FFFFFF" filter="url(#f91wahgq0bbg5)" points="14,224,112,224,119,246.2969,661,246.2969,661,470,14,470,14,224" style="stroke: #000000; stroke-width: 1.5;"/><line style="stroke: #000000; stroke-width: 1.5;" x1="14" x2="119" y1="246.2969" y2="246.2969"/><text fill="#000000" font-family="sans-serif" font-size="14" font-weight="bold" lengthAdjust="spacingAndGlyphs" textLength="92" x="18" y="238.9951">BarberPage</text><!--MD5=[c7b92a0097228a214bad925eafaa4b71]
cluster HomePage--><polygon fill="#FFFFFF" filter="url(#f91wahgq0bbg5)" points="669,399,759,399,766,421.2969,1233,421.2969,1233,634,669,634,669,399" style="stroke: #000000; stroke-width: 1.5;"/><line style="stroke: #000000; stroke-width: 1.5;" x1="669" x2="766" y1="421.2969" y2="421.2969"/><text fill="#000000" font-family="sans-serif" font-size="14" font-weight="bold" lengthAdjust="spacingAndGlyphs" textLength="84" x="673" y="413.9951">HomePage</text><!--MD5=[72f33a1c3e2f047600caa8f5b5582e74]
cluster SearchPage--><polygon fill="#FFFFFF" filter="url(#f91wahgq0bbg5)" points="401,563,501,563,508,585.2969,637,585.2969,637,793,401,793,401,563" style="stroke: #000000; stroke-width: 1.5;"/><line style="stroke: #000000; stroke-width: 1.5;" x1="401" x2="508" y1="585.2969" y2="585.2969"/><text fill="#000000" font-family="sans-serif" font-size="14" font-weight="bold" lengthAdjust="spacingAndGlyphs" textLength="94" x="405" y="577.9951">SearchPage</text><!--MD5=[1b5df17ead3df931cd0f28216010e4ad]
cluster APIService--><polygon fill="#FFFFFF" filter="url(#f91wahgq0bbg5)" points="885,38,975,38,982,60.2969,1298,60.2969,1298,306,885,306,885,38" style="stroke: #000000; stroke-width: 1.5;"/><line style="stroke: #000000; stroke-width: 1.5;" x1="885" x2="982" y1="60.2969" y2="60.2969"/><text fill="#000000" font-family="sans-serif" font-size="14" font-weight="bold" lengthAdjust="spacingAndGlyphs" textLength="84" x="889" y="52.9951">APIService</text><!--MD5=[027ebfd53c01aea08f474edbf35d0797]
cluster Models--><polygon fill="#FFFFFF" filter="url(#f91wahgq0bbg5)" points="1317,38,1379,38,1386,60.2969,1480,60.2969,1480,109,1317,109,1317,38" style="stroke: #000000; stroke-width: 1.5;"/><line style="stroke: #000000; stroke-width: 1.5;" x1="1317" x2="1386" y1="60.2969" y2="60.2969"/><text fill="#000000" font-family="sans-serif" font-size="14" font-weight="bold" lengthAdjust="spacingAndGlyphs" textLength="56" x="1321" y="52.9951">Models</text><!--MD5=[80337f023d33d6062fe5d6c5d0cda3c8]
entity Appointment--><rect fill="#FEFECE" filter="url(#f91wahgq0bbg5)" height="36.2969" style="stroke: #A80036; stroke-width: 1.5;" width="109" x="533.5" y="65"/><rect fill="#FEFECE" height="5" style="stroke: #A80036; stroke-width: 1.5;" width="10" x="528.5" y="70"/><rect fill="#FEFECE" height="5" style="stroke: #A80036; stroke-width: 1.5;" width="10" x="528.5" y="91.2969"/><text fill="#000000" font-family="sans-serif" font-size="14" lengthAdjust="spacingAndGlyphs" textLength="89" x="543.5" y="87.9951">Appointment</text><!--MD5=[6600455cbfd3aa6a265057682cda1be8]
entity Add to google calendar--><rect fill="#FEFECE" filter="url(#f91wahgq0bbg5)" height="36.2969" style="stroke: #A80036; stroke-width: 1.5;" width="180" x="678" y="65"/><rect fill="#FEFECE" height="5" style="stroke: #A80036; stroke-width: 1.5;" width="10" x="673" y="70"/><rect fill="#FEFECE" height="5" style="stroke: #A80036; stroke-width: 1.5;" width="10" x="673" y="91.2969"/><text fill="#000000" font-family="sans-serif" font-size="14" lengthAdjust="spacingAndGlyphs" textLength="160" x="688" y="87.9951">Add to google calendar</text><!--MD5=[d3e41696b90bd11fb3396c984eae4a7b]
entity Past Barbers--><rect fill="#FEFECE" filter="url(#f91wahgq0bbg5)" height="36.2969" style="stroke: #A80036; stroke-width: 1.5;" width="108" x="289" y="65"/><rect fill="#FEFECE" height="5" style="stroke: #A80036; stroke-width: 1.5;" width="10" x="284" y="70"/><rect fill="#FEFECE" height="5" style="stroke: #A80036; stroke-width: 1.5;" width="10" x="284" y="91.2969"/><text fill="#000000" font-family="sans-serif" font-size="14" lengthAdjust="spacingAndGlyphs" textLength="88" x="299" y="87.9951">Past Barbers</text><!--MD5=[6fe2f7e39be47053bf63abda3fc956a1]
entity Barber--><rect fill="#FEFECE" filter="url(#f91wahgq0bbg5)" height="36.2969" style="stroke: #A80036; stroke-width: 1.5;" width="66" x="432" y="65"/><rect fill="#FEFECE" height="5" style="stroke: #A80036; stroke-width: 1.5;" width="10" x="427" y="70"/><rect fill="#FEFECE" height="5" style="stroke: #A80036; stroke-width: 1.5;" width="10" x="427" y="91.2969"/><text fill="#000000" font-family="sans-serif" font-size="14" lengthAdjust="spacingAndGlyphs" textLength="46" x="442" y="87.9951">Barber</text><!--MD5=[6932706212af0c5b7cbe8a453bb70d5d]
entity Name--><rect fill="#FEFECE" filter="url(#f91wahgq0bbg5)" height="36.2969" style="stroke: #A80036; stroke-width: 1.5;" width="60" x="22" y="251"/><rect fill="#FEFECE" height="5" style="stroke: #A80036; stroke-width: 1.5;" width="10" x="17" y="256"/><rect fill="#FEFECE" height="5" style="stroke: #A80036; stroke-width: 1.5;" width="10" x="17" y="277.2969"/><text fill="#000000" font-family="sans-serif" font-size="14" lengthAdjust="spacingAndGlyphs" textLength="40" x="32" y="273.9951">Name</text><!--MD5=[42926dd1f436fff24d2de9137ea85857]
entity Certification--><rect fill="#FEFECE" filter="url(#f91wahgq0bbg5)" height="36.2969" style="stroke: #A80036; stroke-width: 1.5;" width="101" x="117.5" y="251"/><rect fill="#FEFECE" height="5" style="stroke: #A80036; stroke-width: 1.5;" width="10" x="112.5" y="256"/><rect fill="#FEFECE" height="5" style="stroke: #A80036; stroke-width: 1.5;" width="10" x="112.5" y="277.2969"/><text fill="#000000" font-family="sans-serif" font-size="14" lengthAdjust="spacingAndGlyphs" textLength="81" x="127.5" y="273.9951">Certification</text><!--MD5=[57f007891ba33c962ca70821d1912cf9]
entity Rate--><rect fill="#FEFECE" filter="url(#f91wahgq0bbg5)" height="36.2969" style="stroke: #A80036; stroke-width: 1.5;" width="52" x="289" y="251"/><rect fill="#FEFECE" height="5" style="stroke: #A80036; stroke-width: 1.5;" width="10" x="284" y="256"/><rect fill="#FEFECE" height="5" style="stroke: #A80036; stroke-width: 1.5;" width="10" x="284" y="277.2969"/><text fill="#000000" font-family="sans-serif" font-size="14" lengthAdjust="spacingAndGlyphs" textLength="32" x="299" y="273.9951">Rate</text><!--MD5=[c64b233501178c997e71b8533419e088]
entity Email--><rect fill="#FEFECE" filter="url(#f91wahgq0bbg5)" height="36.2969" style="stroke: #A80036; stroke-width: 1.5;" width="56" x="291" y="426"/><rect fill="#FEFECE" height="5" style="stroke: #A80036; stroke-width: 1.5;" width="10" x="286" y="431"/><rect fill="#FEFECE" height="5" style="stroke: #A80036; stroke-width: 1.5;" width="10" x="286" y="452.2969"/><text fill="#000000" font-family="sans-serif" font-size="14" lengthAdjust="spacingAndGlyphs" textLength="36" x="301" y="448.9951">Email</text><!--MD5=[cdeaa7b0feea494e0c0fc1aef6bd2047]
entity Specializations--><rect fill="#FEFECE" filter="url(#f91wahgq0bbg5)" height="36.2969" style="stroke: #A80036; stroke-width: 1.5;" width="122" x="382" y="426"/><rect fill="#FEFECE" height="5" style="stroke: #A80036; stroke-width: 1.5;" width="10" x="377" y="431"/><rect fill="#FEFECE" height="5" style="stroke: #A80036; stroke-width: 1.5;" width="10" x="377" y="452.2969"/><text fill="#000000" font-family="sans-serif" font-size="14" lengthAdjust="spacingAndGlyphs" textLength="102" x="392" y="448.9951">Specializations</text><!--MD5=[6942661d4bf545990c0f94e1efdb370c]
entity Calendar--><rect fill="#FEFECE" filter="url(#f91wahgq0bbg5)" height="36.2969" style="stroke: #A80036; stroke-width: 1.5;" width="81" x="376.5" y="251"/><rect fill="#FEFECE" height="5" style="stroke: #A80036; stroke-width: 1.5;" width="10" x="371.5" y="256"/><rect fill="#FEFECE" height="5" style="stroke: #A80036; stroke-width: 1.5;" width="10" x="371.5" y="277.2969"/><text fill="#000000" font-family="sans-serif" font-size="14" lengthAdjust="spacingAndGlyphs" textLength="61" x="386.5" y="273.9951">Calendar</text><!--MD5=[374e5ea76b93efbf0bf72f8996142439]
entity Google Calendar API--><rect fill="#FEFECE" filter="url(#f91wahgq0bbg5)" height="36.2969" style="stroke: #A80036; stroke-width: 1.5;" width="160" x="493" y="251"/><rect fill="#FEFECE" height="5" style="stroke: #A80036; stroke-width: 1.5;" width="10" x="488" y="256"/><rect fill="#FEFECE" height="5" style="stroke: #A80036; stroke-width: 1.5;" width="10" x="488" y="277.2969"/><text fill="#000000" font-family="sans-serif" font-size="14" lengthAdjust="spacingAndGlyphs" textLength="140" x="503" y="273.9951">Google Calendar API</text><!--MD5=[e4ed552b26df8abfbb9f79bf5e913afa]
entity Location Widget--><rect fill="#FEFECE" filter="url(#f91wahgq0bbg5)" height="36.2969" style="stroke: #A80036; stroke-width: 1.5;" width="130" x="712" y="426"/><rect fill="#FEFECE" height="5" style="stroke: #A80036; stroke-width: 1.5;" width="10" x="707" y="431"/><rect fill="#FEFECE" height="5" style="stroke: #A80036; stroke-width: 1.5;" width="10" x="707" y="452.2969"/><text fill="#000000" font-family="sans-serif" font-size="14" lengthAdjust="spacingAndGlyphs" textLength="110" x="722" y="448.9951">Location Widget</text><!--MD5=[f2fd8ae76aa6e9342a7d8ac18463a88e]
entity Barbers Near You--><rect fill="#FEFECE" filter="url(#f91wahgq0bbg5)" height="36.2969" style="stroke: #A80036; stroke-width: 1.5;" width="141" x="877.5" y="426"/><rect fill="#FEFECE" height="5" style="stroke: #A80036; stroke-width: 1.5;" width="10" x="872.5" y="431"/><rect fill="#FEFECE" height="5" style="stroke: #A80036; stroke-width: 1.5;" width="10" x="872.5" y="452.2969"/><text fill="#000000" font-family="sans-serif" font-size="14" lengthAdjust="spacingAndGlyphs" textLength="121" x="887.5" y="448.9951">Barbers Near You</text><!--MD5=[9b8af6697c917a00185d52e9ead47c2e]
entity Results--><rect fill="#FEFECE" filter="url(#f91wahgq0bbg5)" height="36.2969" style="stroke: #A80036; stroke-width: 1.5;" width="72" x="1054" y="426"/><rect fill="#FEFECE" height="5" style="stroke: #A80036; stroke-width: 1.5;" width="10" x="1049" y="431"/><rect fill="#FEFECE" height="5" style="stroke: #A80036; stroke-width: 1.5;" width="10" x="1049" y="452.2969"/><text fill="#000000" font-family="sans-serif" font-size="14" lengthAdjust="spacingAndGlyphs" textLength="52" x="1064" y="448.9951">Results</text><!--MD5=[4635cb66c1cc81546ba2d43f51032775]
entity Result--><rect fill="#FEFECE" filter="url(#f91wahgq0bbg5)" height="36.2969" style="stroke: #A80036; stroke-width: 1.5;" width="64" x="1161" y="426"/><rect fill="#FEFECE" height="5" style="stroke: #A80036; stroke-width: 1.5;" width="10" x="1156" y="431"/><rect fill="#FEFECE" height="5" style="stroke: #A80036; stroke-width: 1.5;" width="10" x="1156" y="452.2969"/><text fill="#000000" font-family="sans-serif" font-size="14" lengthAdjust="spacingAndGlyphs" textLength="44" x="1171" y="448.9951">Result</text><!--MD5=[761316dde56fde0d5236df87e36a5f2c]
entity Pagination--><rect fill="#FEFECE" filter="url(#f91wahgq0bbg5)" height="36.2969" style="stroke: #A80036; stroke-width: 1.5;" width="92" x="731" y="590"/><rect fill="#FEFECE" height="5" style="stroke: #A80036; stroke-width: 1.5;" width="10" x="726" y="595"/><rect fill="#FEFECE" height="5" style="stroke: #A80036; stroke-width: 1.5;" width="10" x="726" y="616.2969"/><text fill="#000000" font-family="sans-serif" font-size="14" lengthAdjust="spacingAndGlyphs" textLength="72" x="741" y="612.9951">Pagination</text><!--MD5=[876fe7b7d4749d2ef1d7eb1a091bb598]
entity Search Bar--><rect fill="#FEFECE" filter="url(#f91wahgq0bbg5)" height="36.2969" style="stroke: #A80036; stroke-width: 1.5;" width="95" x="409.5" y="590"/><rect fill="#FEFECE" height="5" style="stroke: #A80036; stroke-width: 1.5;" width="10" x="404.5" y="595"/><rect fill="#FEFECE" height="5" style="stroke: #A80036; stroke-width: 1.5;" width="10" x="404.5" y="616.2969"/><text fill="#000000" font-family="sans-serif" font-size="14" lengthAdjust="spacingAndGlyphs" textLength="75" x="419.5" y="612.9951">Search Bar</text><!--MD5=[8f80695830e5b2ecdd01995960423e7e]
entity Price--><rect fill="#FEFECE" filter="url(#f91wahgq0bbg5)" height="36.2969" style="stroke: #A80036; stroke-width: 1.5;" width="54" x="540" y="590"/><rect fill="#FEFECE" height="5" style="stroke: #A80036; stroke-width: 1.5;" width="10" x="535" y="595"/><rect fill="#FEFECE" height="5" style="stroke: #A80036; stroke-width: 1.5;" width="10" x="535" y="616.2969"/><text fill="#000000" font-family="sans-serif" font-size="14" lengthAdjust="spacingAndGlyphs" textLength="34" x="550" y="612.9951">Price</text><!--MD5=[1282960e86064a9512590878e8f72984]
entity Distance--><rect fill="#FEFECE" filter="url(#f91wahgq0bbg5)" height="36.2969" style="stroke: #A80036; stroke-width: 1.5;" width="81" x="416.5" y="749"/><rect fill="#FEFECE" height="5" style="stroke: #A80036; stroke-width: 1.5;" width="10" x="411.5" y="754"/><rect fill="#FEFECE" height="5" style="stroke: #A80036; stroke-width: 1.5;" width="10" x="411.5" y="775.2969"/><text fill="#000000" font-family="sans-serif" font-size="14" lengthAdjust="spacingAndGlyphs" textLength="61" x="426.5" y="771.9951">Distance</text><!--MD5=[92c76255242b65bb2780cba28222c775]
entity axios--><rect fill="#FEFECE" filter="url(#f91wahgq0bbg5)" height="36.2969" style="stroke: #A80036; stroke-width: 1.5;" width="55" x="893.5" y="65"/><rect fill="#FEFECE" height="5" style="stroke: #A80036; stroke-width: 1.5;" width="10" x="888.5" y="70"/><rect fill="#FEFECE" height="5" style="stroke: #A80036; stroke-width: 1.5;" width="10" x="888.5" y="91.2969"/><text fill="#000000" font-family="sans-serif" font-size="14" lengthAdjust="spacingAndGlyphs" textLength="35" x="903.5" y="87.9951">axios</text><!--MD5=[8fb4cc77400df6d802a8b11b7d588f88]
entity get--><rect fill="#FEFECE" filter="url(#f91wahgq0bbg5)" height="36.2969" style="stroke: #A80036; stroke-width: 1.5;" width="43" x="1147.5" y="65"/><rect fill="#FEFECE" height="5" style="stroke: #A80036; stroke-width: 1.5;" width="10" x="1142.5" y="70"/><rect fill="#FEFECE" height="5" style="stroke: #A80036; stroke-width: 1.5;" width="10" x="1142.5" y="91.2969"/><text fill="#000000" font-family="sans-serif" font-size="14" lengthAdjust="spacingAndGlyphs" textLength="23" x="1157.5" y="87.9951">get</text><!--MD5=[93e97847b1b330667bb0856a6855201b]
entity post--><rect fill="#FEFECE" filter="url(#f91wahgq0bbg5)" height="36.2969" style="stroke: #A80036; stroke-width: 1.5;" width="51" x="1061.5" y="65"/><rect fill="#FEFECE" height="5" style="stroke: #A80036; stroke-width: 1.5;" width="10" x="1056.5" y="70"/><rect fill="#FEFECE" height="5" style="stroke: #A80036; stroke-width: 1.5;" width="10" x="1056.5" y="91.2969"/><text fill="#000000" font-family="sans-serif" font-size="14" lengthAdjust="spacingAndGlyphs" textLength="31" x="1071.5" y="87.9951">post</text><!--MD5=[884facfb3f77cc25292f8b7ff4c52a03]
entity put--><rect fill="#FEFECE" filter="url(#f91wahgq0bbg5)" height="36.2969" style="stroke: #A80036; stroke-width: 1.5;" width="43" x="983.5" y="65"/><rect fill="#FEFECE" height="5" style="stroke: #A80036; stroke-width: 1.5;" width="10" x="978.5" y="70"/><rect fill="#FEFECE" height="5" style="stroke: #A80036; stroke-width: 1.5;" width="10" x="978.5" y="91.2969"/><text fill="#000000" font-family="sans-serif" font-size="14" lengthAdjust="spacingAndGlyphs" textLength="23" x="993.5" y="87.9951">put</text><!--MD5=[1061fc4898171ac904f84a1012e04456]
entity delete--><rect fill="#FEFECE" filter="url(#f91wahgq0bbg5)" height="36.2969" style="stroke: #A80036; stroke-width: 1.5;" width="64" x="1226" y="65"/><rect fill="#FEFECE" height="5" style="stroke: #A80036; stroke-width: 1.5;" width="10" x="1221" y="70"/><rect fill="#FEFECE" height="5" style="stroke: #A80036; stroke-width: 1.5;" width="10" x="1221" y="91.2969"/><text fill="#000000" font-family="sans-serif" font-size="14" lengthAdjust="spacingAndGlyphs" textLength="44" x="1236" y="87.9951">delete</text><!--MD5=[fcd7b9b58b982891a4c065296d4ac5c8]
entity http--><ellipse cx="1105" cy="269" fill="#FEFECE" filter="url(#f91wahgq0bbg5)" rx="8" ry="8" style="stroke: #A80036; stroke-width: 2.0;"/><text fill="#000000" font-family="sans-serif" font-size="14" lengthAdjust="spacingAndGlyphs" textLength="28" x="1091" y="298.9951">http</text><!--MD5=[fee662a292a0353a69bd162820bae93b]
entity User--><rect fill="#FEFECE" filter="url(#f91wahgq0bbg5)" height="36.2969" style="stroke: #A80036; stroke-width: 1.5;" width="52" x="1420" y="65"/><rect fill="#FEFECE" height="5" style="stroke: #A80036; stroke-width: 1.5;" width="10" x="1415" y="70"/><rect fill="#FEFECE" height="5" style="stroke: #A80036; stroke-width: 1.5;" width="10" x="1415" y="91.2969"/><text fill="#000000" font-family="sans-serif" font-size="14" lengthAdjust="spacingAndGlyphs" textLength="32" x="1430" y="87.9951">User</text><!--MD5=[0ba5ee7700168656dc1b457c6fe9fdac]
entity Client--><rect fill="#FEFECE" filter="url(#f91wahgq0bbg5)" height="36.2969" style="stroke: #A80036; stroke-width: 1.5;" width="59" x="1325.5" y="65"/><rect fill="#FEFECE" height="5" style="stroke: #A80036; stroke-width: 1.5;" width="10" x="1320.5" y="70"/><rect fill="#FEFECE" height="5" style="stroke: #A80036; stroke-width: 1.5;" width="10" x="1320.5" y="91.2969"/><text fill="#000000" font-family="sans-serif" font-size="14" lengthAdjust="spacingAndGlyphs" textLength="39" x="1335.5" y="87.9951">Client</text><!--MD5=[6ee201e0b085ba884652b8516481b93e]
link Appointment to Add to google calendar--><path d="M642.8438,83 C652.6967,83 662.5496,83 672.4026,83 " fill="none" id="Appointment-&gt;Add to google calendar" style="stroke: #A80036; stroke-width: 1.0;"/><polygon fill="#A80036" points="677.5551,83,668.5551,79,672.5551,83,668.5551,87,677.5551,83" style="stroke: #A80036; stroke-width: 1.0;"/><!--MD5=[8ac7a7cc5c009eb8bee41135a55f9788]
link Past Barbers to Barber--><path d="M397.3281,83 C407.1577,83 416.9873,83 426.8169,83 " fill="none" id="Past Barbers-&gt;Barber" style="stroke: #A80036; stroke-width: 1.0;"/><polygon fill="#A80036" points="431.9571,83,422.9571,79,426.9571,83,422.9571,87,431.9571,83" style="stroke: #A80036; stroke-width: 1.0;"/><!--MD5=[9d367278f8b2dddd98dd282b2a61b9cb]
link Calendar to Google Calendar API--><path d="M457.5234,269 C467.5106,269 477.4978,269 487.485,269 " fill="none" id="Calendar-&gt;Google Calendar API" style="stroke: #A80036; stroke-width: 1.0;"/><polygon fill="#A80036" points="492.7077,269,483.7077,265,487.7077,269,483.7077,273,492.7077,269" style="stroke: #A80036; stroke-width: 1.0;"/><!--MD5=[6e52225d1bafd3bcef2ab7f7adf44889]
link Results to Result--><path d="M1126.2109,444 C1136.0604,444 1145.9099,444 1155.7593,444 " fill="none" id="Results-&gt;Result" style="stroke: #A80036; stroke-width: 1.0;"/><polygon fill="#A80036" points="1160.9099,444,1151.9099,440,1155.9099,444,1151.9099,448,1160.9099,444" style="stroke: #A80036; stroke-width: 1.0;"/><!--MD5=[b1de48309250a8c3b785f491e1e4330f]
link axios to get--><path d="M933.1671,64.9758 C944.2812,50.339 962.1982,30.88 983.5,23 C1037.2721,3.1084 1058.7279,3.1084 1112.5,23 C1130.8636,29.7932 1145.7391,46.4682 1155.6084,60.5193 " fill="none" id="axios-&gt;get" style="stroke: #A80036; stroke-width: 1.0;"/><polygon fill="#A80036" points="1158.5089,64.782,1156.7529,55.091,1155.6961,60.6482,1150.1388,59.5914,1158.5089,64.782" style="stroke: #A80036; stroke-width: 1.0;"/><!--MD5=[69088b7b18993ade128c8e8d207deca9]
link axios to post--><path d="M933.1671,64.9758 C944.2812,50.339 962.1982,30.88 983.5,23 C1001.424,16.3695 1008.576,16.3695 1026.5,23 C1045.4858,30.0233 1061.4612,46.6824 1072.2197,60.6689 " fill="none" id="axios-&gt;post" style="stroke: #A80036; stroke-width: 1.0;"/><polygon fill="#A80036" points="1075.3886,64.9101,1073.2058,55.3062,1072.3958,60.9047,1066.7972,60.0947,1075.3886,64.9101" style="stroke: #A80036; stroke-width: 1.0;"/><!--MD5=[31787e1f6ac2b74a2d4e7fb44d9dcacd]
link axios to put--><path d="M948.5625,83 C958.4499,83 968.3372,83 978.2246,83 " fill="none" id="axios-&gt;put" style="stroke: #A80036; stroke-width: 1.0;"/><polygon fill="#A80036" points="983.395,83,974.395,79,978.395,83,974.395,87,983.395,83" style="stroke: #A80036; stroke-width: 1.0;"/><!--MD5=[95a70ad0ca2cc65898e35ca3d1312938]
link axios to delete--><path d="M933.1671,64.9758 C944.2812,50.339 962.1982,30.88 983.5,23 C1026.6427,7.0405 1147.3573,7.0405 1190.5,23 C1210.6623,30.4585 1228.5897,47.1387 1240.8927,61.0231 " fill="none" id="axios-&gt;delete" style="stroke: #A80036; stroke-width: 1.0;"/><polygon fill="#A80036" points="1244.2108,64.8551,1241.3432,55.4329,1240.9378,61.0752,1235.2955,60.6698,1244.2108,64.8551" style="stroke: #A80036; stroke-width: 1.0;"/><!--MD5=[6196714ac69ce03a5e5594afa2c52f83]
link get to http--><path d="M1162.7469,101.1731 C1150.0282,138.1367 1121.3797,221.3965 1109.8968,254.7687 " fill="none" id="get-&gt;http" style="stroke: #A80036; stroke-width: 1.0; stroke-dasharray: 7.0,7.0;"/><polygon fill="#A80036" points="1108.2063,259.6817,1114.9172,252.4731,1109.8333,254.9538,1107.3525,249.8699,1108.2063,259.6817" style="stroke: #A80036; stroke-width: 1.0;"/><text fill="#000000" font-family="sans-serif" font-size="13" lengthAdjust="spacingAndGlyphs" textLength="30" x="1142" y="175.0669">uses</text><!--MD5=[317832f77770f37d95929901a417be5b]
link post to http--><path d="M1085.2261,101.1767 C1083.7589,117.1745 1081.7922,141.1078 1081,162 C1080.7137,169.5501 1080.0183,171.5085 1081,179 C1084.5989,206.4631 1094.1256,237.4655 1100.0369,254.9772 " fill="none" id="post-&gt;http" style="stroke: #A80036; stroke-width: 1.0; stroke-dasharray: 7.0,7.0;"/><polygon fill="#A80036" points="1101.7448,259.9599,1102.6104,250.1492,1100.1235,255.2301,1095.0426,252.7432,1101.7448,259.9599" style="stroke: #A80036; stroke-width: 1.0;"/><text fill="#000000" font-family="sans-serif" font-size="13" lengthAdjust="spacingAndGlyphs" textLength="30" x="1082" y="175.0669">uses</text><!--MD5=[34a36f99b4a3c9c23b90f4665fec2478]
link put to http--><path d="M1010.0313,101.3251 C1015.8401,121.1272 1026.371,153.2965 1040,179 C1055.5653,208.3551 1079.6427,238.9869 1093.7097,255.8643 " fill="none" id="put-&gt;http" style="stroke: #A80036; stroke-width: 1.0; stroke-dasharray: 7.0,7.0;"/><polygon fill="#A80036" points="1097.0591,259.8497,1094.3309,250.3863,1093.8422,256.022,1088.2065,255.5333,1097.0591,259.8497" style="stroke: #A80036; stroke-width: 1.0;"/><text fill="#000000" font-family="sans-serif" font-size="13" lengthAdjust="spacingAndGlyphs" textLength="30" x="1041" y="175.0669">uses</text><!--MD5=[745e6d94da2b04a0ec949d96d8bc5ee6]
link delete to http--><path d="M1243.6596,101.1571 C1228.2963,120.5437 1203.1312,152.1106 1181,179 C1158.3563,206.5122 1131.3306,238.2645 1116.3767,255.741 " fill="none" id="delete-&gt;http" style="stroke: #A80036; stroke-width: 1.0; stroke-dasharray: 7.0,7.0;"/><polygon fill="#A80036" points="1112.845,259.8653,1121.7371,255.6309,1116.0971,256.0675,1115.6606,250.4275,1112.845,259.8653" style="stroke: #A80036; stroke-width: 1.0;"/><text fill="#000000" font-family="sans-serif" font-size="13" lengthAdjust="spacingAndGlyphs" textLength="30" x="1194" y="175.0669">uses</text><!--MD5=[00ba15128e27e1bef04f08abae004bd4]
link ClientPage to BarberPage--><!--MD5=[d63ea7c57b0e745c4e27b82ea00f6be1]
link BarberPage to HomePage--><!--MD5=[a868f08a6d77acbe6ec401993e6d9a25]
link HomePage to SearchPage--><!--MD5=[9ca0f8a7aa542a3477fb1e1d67c68988]
link Name to Certification--><!--MD5=[d24298a2272c89ea7e6c1d24bef8d76a]
link Certification to Rate--><!--MD5=[dba5603c9278eaf58a5018a5f1dd9749]
link Name to Email--><!--MD5=[776519e33898af52d96a1dd0f3787a94]
link Email to Specializations--><!--MD5=[47ee714f1b6e23df06e9d7553342ec1b]
link Location Widget to Barbers Near You--><!--MD5=[ae8cb04cad3fc55d795a286d595bd27c]
link Location Widget to Pagination--><!--MD5=[eadcbfae8f18bae724448a1971fd13d5]
link Search Bar to Price--><!--MD5=[93ab575c2c5a5d53519e95fe4dc58b1f]
link Search Bar to Distance--><!--MD5=[14ab0504470bed418d7e75e8416e6e99]
link Rate to Location Widget--><!--MD5=[0d1f4ac53cac13f3579fe9e86835b054]
link Email to Search Bar--><!--MD5=[52491b73712f65d0799e9b2fff7341ba]
@startuml
package "ClientPage" {
  [Appointment]->[Add to google calendar]
  [Past Barbers]->[Barber]
}

package "BarberPage" {
  [Name]
  [Certification]
  [Rate]
  [Email]
  [Specializations]
  [Calendar] -> [Google Calendar API]
}

package "HomePage" {
  [Location Widget]
  [Barbers Near You]
  [Results]->[Result]
  [Pagination]
}

package "SearchPage" {
  [Search Bar]
  [Price]
  [Distance]
  [Specializations]
}

package "APIService" {
  [axios] -> [get]
  [axios] -> [post]
  [axios] -> [put]
  [axios] -> [delete]
  [get] ..> http : uses
  [post] ..> http : uses
  [put] ..> http : uses
  [delete] ..> http : uses
}

package "Models" {
  [Appointment]
  [User]
  [Barber]
  [Client]
}

ClientPage -[hidden]- -> BarberPage
BarberPage -[hidden]- -> HomePage
HomePage -[hidden]- -> SearchPage
@enduml

PlantUML version 1.2019.12(Sun Nov 03 10:24:54 UTC 2019)
(GPL source distribution)
Java Runtime: OpenJDK Runtime Environment
JVM: OpenJDK 64-Bit Server VM
Java Version: 1.8.0_232-heroku-b09
Operating System: Linux
Default Encoding: UTF-8
Language: en
Country: US
--></g></svg>